<?xml version="1.0" encoding="iso-8859-1"?>
<!-- Generator: Adobe Illustrator 19.0.0, SVG Export Plug-In . SVG Version: 6.00 Build 0)  -->
<svg version="1.1" id="Capa_1" xmlns="http://www.w3.org/2000/svg" xmlns:xlink="http://www.w3.org/1999/xlink" x="0px" y="0px"
	 viewBox="0 0 511.999 511.999" style="enable-background:new 0 0 511.999 511.999;" xml:space="preserve">
<polygon style="fill:#3BD2D3;" points="20.607,188.913 27.96,220.661 34.505,373.125 48.498,478.455 63.162,492.218 94.799,495.556 
	229.565,502.801 341.871,502.801 436.48,488.153 456.219,467.054 464.387,429.325 467.68,377.889 476.639,245.982 476.639,184.753 
	"/>
<polygon style="fill:#74DEDA;" points="498.911,107.52 15.844,113.865 6.314,131.334 6.314,159.089 6.314,180.349 20.607,188.913 
	37.625,192.005 476.639,184.753 498.911,171.131 501.822,143.368 504.545,117.752 "/>
<g>
	<path style="fill:#FFFFFF;" d="M30,269.332c5.293-8.247,14.359-14.951,21.602-21.51c4.591-4.157,9.35-8.211,13.793-12.517
		c11.22-10.874,20.3-23.883,31.605-34.68c2.823-2.696,6.225-7.924,9.628-9.682c1.001-0.517,2.839-0.283,4.106-0.277
		c6.91,0.028,13.804-0.073,20.709-0.334c19.156-0.723,38.265,1.244,57.451,0.986c-4.425,4.15-8.029,9.33-12.646,13.557
		c-9.109,8.344-18.216,17.01-26.754,25.932c-16.443,17.18-33.914,33.343-50.796,50.083c-12.905,12.798-24.782,26.568-36.83,40.167
		c-7.181,8.105-15.577,15.837-22.843,23.312c-1.609-2.487-1.592-6.34-2.014-9.168c-1.091-7.296-1.783-14.629-2.752-21.941
		c-0.969-7.303-1.754-14.616-2.658-21.925C30.91,285.749,27.914,277.833,30,269.332z"/>
	<path style="fill:#FFFFFF;" d="M44,420.999c3.281-2.255,5.813-5.611,8.44-8.559c5.419-6.079,11.017-12.02,16.708-17.845
		c9.113-9.33,18.854-17.98,27.732-27.541c15.893-17.114,33.326-32.733,49.19-49.87c13.478-14.559,27.412-28.491,41.152-42.79
		c4.852-5.049,9.883-10.044,14.503-15.308c4.641-5.288,9.4-11.387,15.261-15.355c-2.279,16.154-3.202,34.658-1.003,50.877
		c1.532,11.304,2.242,22.329,0.625,33.619c-1.821,0.294-3.064,1.924-4.344,3.297c-3.998,4.289-8.016,8.705-11.899,13.1
		c-7.015,7.937-12.976,16.652-20.271,24.394c-5.764,6.117-11.715,12.059-17.523,18.133c-18.457,19.298-36.146,39.132-55.042,57.988
		c-13.569,13.541-26.638,27.678-42.052,39.003c-3.178,2.334-4.258,2.702-8.007,1.012c-5.235-2.359-6.005-7.084-7.488-12.412
		C45.103,455.207,44.367,434.755,44,420.999z"/>
	<path style="fill:#FFFFFF;" d="M150.666,496.332c12.065-14.936,24.721-29.542,36.861-44.5
		c9.553-11.771,18.137-26.328,29.761-36.121c4.2,15.819-0.888,34.069-1.222,50.066c-0.263,12.556-1.772,24.981-2.795,37.433
		c-2.651-2.513-7.412-2.767-10.748-3.433c-6.202-1.237-12.549-2.579-18.894-2.4C171.556,497.716,159.908,498.395,150.666,496.332z"
		/>
	<path style="fill:#FFFFFF;" d="M292.333,260.332c22.148-23.509,44.49-46.622,64.573-71.919c-5.047-3.485-10.906-4.029-17.58-1.632
		c-8.99-1.821-18.199-2.514-27.359-2.007c-3.508,0.194-6.707,1.322-10.064,1.678c-1.004,0.107-10.471-2.366-9.739-3.369
		c-0.919,1.258-0.337,2.484-0.233,4.389c0.27,5.017,0.134,10.086,0.252,15.111C292.635,221.963,287.844,241.071,292.333,260.332z"/>
	<path style="fill:#FFFFFF;" d="M293.077,349.951c3.63-5.281,8.391-9.906,12.644-14.664c4.635-5.185,9.596-10.135,14.118-15.398
		c4.74-5.518,8.45-11.85,13.196-17.373c6.38-7.426,12.273-15.09,18.477-22.638c8.29-10.087,15.977-20.672,24.65-30.442
		c4.12-4.64,8.896-8.614,13.087-13.045c4.871-5.151,8.837-11.428,13.434-16.857c6.603-7.798,12.75-16.125,19.458-23.793
		c1.887-2.156,5.078-7.256,7.86-8.398c0.578-0.237,1.999,0.361,2.681,0.35c3.287-0.055,6.563-0.321,9.849-0.377
		c6.938-0.118,13.897,0.244,20.833,0.042c2.635-0.077,7.66-1.873,10.074-0.03c3.078,2.35,0.982,7.431,0.561,10.756
		c-0.855,6.735-0.154,14.634-2.066,21.192c-0.155-0.125-0.322-0.232-0.502-0.321c-16.969,15.221-31.695,34.463-44.629,53.145
		c-11.995,17.327-24.209,34.48-36.971,51.294c-4.254,5.605-9.584,9.777-13.917,15.095c-4.799,5.89-9.204,12.101-13.444,18.401
		c-8.208,12.199-15.729,24.845-24.008,36.998c-8.262,12.13-17.467,23.947-27.141,34.973c-4.955,5.647-13.5,12.3-15.393,20.021
		c-3.633-4.586-2.164-15.217-2.252-20.631c-0.187-11.2-1.26-22.384-1.601-33.581c-0.379-12.428,1.046-25.111-0.282-37.466
		c-0.408-3.792-0.906-4.045,1.198-7.128C293.02,350.035,293.049,349.993,293.077,349.951z"/>
	<path style="fill:#FFFFFF;" d="M343,497.332c4.854-6.425,9.02-13.74,13.65-20.393c7.508-10.78,15.365-21.288,22.99-31.985
		c10.98-15.407,22.191-30.634,32.873-46.248c9.865-14.419,20.646-28.575,29.825-43.434c5.29-8.561,10.36-17.171,15.774-25.659
		c3.282-5.145,6.139-14.322,11.498-17.516c1.371,2.9,0.719,7.842,0.731,11.061c0.032,7.983,0.726,15.827,1.145,23.791
		c0.897,17.106-2.536,33.733-2.483,50.73c0.043,13.721-2.777,27.313-5.24,40.776c-2.248,12.29-5.773,25.349-11.646,36.459
		c-3.563,6.743-7.185,13.084-14.882,15.319c-9.156,2.658-20.088,6.116-29.664,6.098c-10.523-0.021-21.385-0.372-31.912-0.908
		c-6.376-0.325-12.748-0.328-19.122-0.636C352.787,494.606,346.716,495.74,343,497.332z"/>
</g>
<path style="fill:#F95252;" d="M205.557,116.518c5.722,6.63,5.239,22.653,5.561,30.476c0.441,10.761,1.054,21.515,1.719,32.265
	c0.578,9.333,3.389,16.054,5.003,24.828c1.892,10.289-0.839,21.325-0.839,31.689c0,20.271-0.242,40.561-0.035,60.831
	c0.303,29.432,1.519,58.9,3.366,88.266c1.232,19.591,0.652,38.772,0.669,58.344c0.015,17.665-4.072,38.613-1.174,55.65
	c15.151,2.184,31.219,0.544,46.592,1.318c6.498,0.327,16.865,2.803,23.225,0.961c3.816-1.105,2.126,1.675,4.039-2.329
	c3.641-7.618-1.021-22.175-0.747-30.854c0.505-15.951,0.967-30.947,0.015-46.893c-2.212-37.102-1.709-74.543-3.133-111.725
	c-0.955-24.991-0.848-50.327-0.816-75.333c0.027-22.76-1.721-45.46-2.899-68.175c-0.583-11.237-7.995-49.634,5.889-53.508
	c5.306-1.48,13.006-0.137,18.534-0.324c9.712-0.328,19.436-0.351,29.145-0.774c11.215-0.488,22.364-1.739,33.553-2.589
	c7.703-0.586,18.91,0.912,26.209-1.693c4.199-1.499,3.341,0.26,3.934-5.063c1.08-9.692-0.377-21.192,0.142-31.24
	c0.84-16.251,2.273-32.531,1.509-48.844c-0.317-6.752-1.027-11.28-8.707-10.834c-8.479,0.492-21.941,8.31-30.215,11.067
	c-22.509,7.499-45.201,13.175-66.967,22.764c-6.664,2.936-16.557,11.833-24.054,11.203c-6.431-0.541-10.001-8.659-16.411-10.75
	c-8.082-2.637-17.166-0.15-24.642,3.19c-1.651,0.738-18.634,10.996-17.759,11.884c-13.295-13.484-35.268-22.798-52.475-30.645
	c-15.502-7.07-45.656-27.678-62.095-14.032c-7.243,6.013-6.714,20.058-6.689,28.718c0.05,17.248,1.908,34.553,5.33,51.47
	c1.753,8.665,0.982,17.553,10.423,19.695c17.104,3.881,37.695-0.987,54.879-2.263c10.43-0.774,29.594-5.464,38.777,2.119
	C204.817,115.726,205.199,116.103,205.557,116.518z"/>
<path d="M510.457,111.731c-4.294-10.743-15.948-10.285-25.678-10.388c-12.125-0.128-24.252-0.192-36.377-0.271
	c-13.932-0.09-27.863-0.099-41.795-0.042c2.521-20.947,2.143-42.496,3.511-63.524c0.515-7.921,2.515-17.392-0.8-24.98
	c-3.645-8.339-11.937-8.954-19.754-6.651c-20.42,6.015-40.6,13.676-60.318,21.672c-19.014,7.711-38.605,15.271-56.447,25.523
	c-5.592-11.118-17.236-13.177-29.697-11.465c-9.652,1.326-18.044,5.261-23.822,12.021c-26.732-18.181-57.608-31.267-87.738-42.592
	c-11.854-4.456-28.976-11.616-38.836,0.504c-4.219,5.187-5.021,12.058-4.859,18.532c0.21,8.391,0.675,16.792,1.569,25.139
	c1.87,17.441,4.487,35.612,10.07,52.389c-16.521,0.105-33.044,0.213-49.565,0.315c-11.053,0.068-23.177-0.859-34.036,1.54
	C5.67,111.709,1.264,119.684,0.479,129.499c-0.938,11.739-0.168,23.745-0.391,35.523c-0.164,8.707-0.409,18.711,6.57,25.114
	c3.783,3.471,8.641,4.766,13.708,5.204c0.046,32.059,2.009,64.064,4.078,96.055c2.249,34.784,5.071,69.528,8.211,104.243
	c1.538,17.001,3.13,33.998,4.817,50.984c1.336,13.457,0.859,29.684,9.256,41.075c8.92,12.103,24.354,12.907,38.108,13.764
	c17.037,1.062,34.075,2.165,51.124,3.021c68.926,3.462,138.042,3.805,206.979,0.51c17.766-0.849,35.52-1.934,53.256-3.256
	c14.488-1.079,30.736-0.642,44.408-6.098c12.568-5.016,19.896-15.67,23.523-28.344c4.316-15.089,5.342-31.429,7.322-46.946
	c9.697-75.905,14.801-153.386,10.988-229.906c8.678-1.742,15.683-6.537,19.3-15.062c4.298-10.129,5.058-22.112,6.849-32.882
	C510.16,133.035,514.197,121.092,510.457,111.731z M325.932,38.741c17.486-6.263,35.053-12.318,52.775-17.876
	c4.598-1.441,9.174-2.979,13.794-4.336c3.319-0.974,6.198-2.007,7.185,2.146c0.781,3.28,0.101,7.055-0.114,10.371
	c-0.321,4.936-0.624,9.873-0.964,14.807c-1.307,18.945-4.286,38.235-4.353,57.244c-6.917,0.05-13.837,0.113-20.755,0.199
	c-32.032,0.398-64.11,0.968-96.146,2.288c0.601-4.769,0.983-9.679,1.095-14.622c16.445-0.446,32.678,1.092,48.865,4.214
	c5.145,0.992,7.314-6.94,2.168-7.864c-16.847-3.024-33.995-3.674-51.039-2.364c-0.049-1.907-0.134-3.814-0.278-5.714
	c17.442-6.349,34.917-12.621,52.255-19.249c4.443-1.698,2.549-8.906-1.99-7.215c-17.08,6.362-34.033,13.067-51.008,19.706
	c-0.623-4.331-1.529-8.59-2.79-12.698C291.971,52.179,308.781,44.884,325.932,38.741z M221.506,72.329
	c2.66-11.621,9.994-18.454,21.727-20.569c4.654-0.839,10.378-1.606,14.947-0.004c5.361,1.879,6.902,7.403,8.051,12.429
	c2.883,12.592,2.853,25.771,0.75,38.481c-0.08,0.481-0.094,0.939-0.063,1.377c-14.006,0.652-28,1.458-41.979,2.47
	C222.311,95.446,218.92,83.631,221.506,72.329z M99.539,25.208c1.852-8.778,9.105-8.14,16.219-6.037
	c34.477,10.196,66.621,26.304,99.6,40.268c-1.027,1.956-1.906,4.057-2.579,6.343c-0.681,2.31-1.099,4.629-1.333,6.949
	c-13.891-6.729-27.809-13.386-42.078-19.289c-4.28-1.771-7.404,5.572-3.175,7.529c14.797,6.85,29.963,12.819,45.134,18.775
	c0.17,2.683,0.574,5.354,1.149,8.004c-12.535-3.467-26.255-4.287-38.978-5.66c-4.405-0.476-4.371,6.422,0,6.894
	c12.99,1.402,26.741,3.532,39.932,2.616c1.472,5.267,3.544,10.417,5.793,15.341c-0.232,0.018-0.465,0.035-0.696,0.053
	c-6.363,0.021-12.728,0.04-19.09,0.063c-29.243,0.107-58.486,0.278-87.729,0.462c-5.279-18.339-10.361-36.216-11.967-55.375
	C99.015,43.483,97.729,33.793,99.539,25.208z M13.885,180.852c-2.557-2.864-2.584-7.596-2.693-11.191
	c-0.176-5.738-0.188-11.492-0.172-17.231c0.014-5.247,0.023-10.494,0.041-15.741c0.018-4.901-0.645-11.177,4.607-13.619
	c3.545-1.647,7.87-1.373,11.662-1.368c6.097,0.007,12.191,0.08,18.287-0.01c46.612-0.69,93.227-1.473,139.836-2.366
	c6.943-0.133,13.888-0.25,20.832-0.373c0.148,10.324,1.043,20.696,1.628,30.97c0.597,10.476,1.123,20.955,1.607,31.437
	c-55.452,0.662-110.903,1.325-166.354,2.052c-5.724,0.075-11.449,0.191-17.174,0.225C22.064,183.66,16.78,184.098,13.885,180.852z
	 M27.96,195.515c2.274-0.045,4.509-0.132,6.619-0.148c12.882-0.093,25.763-0.198,38.644-0.307
	c8.381-0.071,16.762-0.142,25.143-0.213c-11.703,10.606-22.623,22.433-33.457,33.743c-10.67,11.137-20.982,22.49-30.902,34.249
	C32.219,240.375,30.404,217.916,27.96,195.515z M36.851,297.782c-0.819-9.558-1.585-19.12-2.346-28.682
	c11.572-12.062,23.13-24.148,34.87-36.042c12.838-13.006,26.684-25.159,39.364-38.299c12.85-0.109,25.7-0.22,38.55-0.327
	c11.024-0.093,22.049-0.178,33.072-0.266c-23.949,23.646-46.918,48.354-70.282,72.567c-23.438,24.291-46.628,48.81-69.487,73.644
	C39.314,326.18,38.066,311.982,36.851,297.782z M47.138,408.388c-2.13-20.375-4.075-40.768-5.932-61.168
	c25.12-24.67,49.873-49.699,74.376-74.985c25.139-25.943,50.871-51.444,75.197-78.153c6.437-0.051,12.871-0.105,19.308-0.155
	c0.689,15.859,1.327,31.719,1.839,47.584c-30.097,28.64-57.977,59.875-86.619,89.945c-26.004,27.299-52.766,54.201-77.553,82.672
	C47.551,412.214,47.338,410.302,47.138,408.388z M56.313,476.674c-2.573-6.061-3.068-12.979-3.81-19.438
	c-1.384-12.051-2.71-24.109-4.005-36.17c28.589-26.795,55.311-55.76,82.492-83.926c27.104-28.087,55.26-55.546,81.258-84.709
	c0.085,3.051,0.18,6.102,0.254,9.154c0.494,20.479,0.867,40.954,1.098,61.43c-12.529,12.428-23.717,26.341-35.297,39.638
	c-12.85,14.755-25.934,29.305-39.246,43.644c-24.693,26.597-49.946,52.671-75.588,78.356
	C60.367,482.868,57.862,480.324,56.313,476.674z M211.414,495.407c-15.205-0.197-30.406-0.579-45.597-1.172
	c-3.942-0.154-7.884-0.321-11.825-0.498c12.118-11.685,23.558-23.981,34.436-36.869c8.497-10.065,17.295-20.632,24.861-31.789
	C212.83,448.526,212.092,471.965,211.414,495.407z M213.543,411.119c-10.544,13.572-20.019,28.075-30.636,41.596
	c-11.011,14.022-22.689,27.577-34.724,40.744c-10.472-0.501-20.94-1.075-31.404-1.74c-8.171-0.52-16.337-1.08-24.492-1.81
	c-7.395-0.662-15.104-0.857-22.322-2.707c-0.506-0.13-1.002-0.274-1.494-0.425c26.686-24.103,52.381-49.277,77.057-75.44
	c13.42-14.228,26.613-28.669,39.573-43.316c9.778-11.052,19.802-22.22,28.608-34.156
	C213.93,359.612,213.902,385.361,213.543,411.119z M217.004,152.047c-0.925-11.029-1.646-22.23-3.258-33.229
	c22.699-0.389,45.4-0.731,68.102-1.067c0.379,20.908,0.913,41.813,1.498,62.715c-21.343,0.259-42.685,0.521-64.027,0.775
	C218.604,171.506,217.818,161.774,217.004,152.047z M221.793,495.51c6.305-100.07,4.982-200.934-1.543-300.949
	c-0.016-0.239-0.033-0.477-0.049-0.715c21.169-0.165,42.338-0.33,63.507-0.496c0.641,22.469,1.3,44.936,1.824,67.408
	c1.169,50.077,1.629,100.181,2.001,150.27c0.209,27.925,0.173,55.848,0.943,83.763C266.255,495.412,244.021,495.67,221.793,495.51z
	 M293.98,196.381c-0.051-1.037-0.105-2.074-0.157-3.11c0.892-0.007,1.782-0.014,2.673-0.021c17.518-0.139,35.035-0.306,52.553-0.482
	c-9.217,10.93-18.211,22.065-27.336,33.063c-8.515,10.264-17.282,20.533-25.276,31.282
	C295.77,236.861,294.98,216.614,293.98,196.381z M327.456,230.078c10.403-12.461,21.021-24.782,31.228-37.408
	c20.235-0.209,40.473-0.439,60.709-0.665c-3.633,4.258-7.038,8.755-10.551,13.026c-5.654,6.877-11.309,13.755-16.963,20.632
	c-11.084,13.479-22.166,26.958-33.25,40.438c-20.174,24.538-40.852,48.773-59.973,74.154c-0.566-24.927-1.173-49.86-1.952-74.788
	C307.59,254.309,317.489,242.016,327.456,230.078z M470.729,209.793c-5.109,5.786-9.512,12.48-14.117,18.525
	c-6.059,7.954-12.117,15.908-18.178,23.862c-11.896,15.616-23.691,31.303-35.459,47.016c-23.926,31.946-47.363,64.26-70.801,96.566
	c-11.052,15.235-21.883,30.598-32.715,45.978c0.414-31.573,0.057-63.189-0.648-94.678c23.123-24.891,44.511-51.426,66.359-77.43
	c11.215-13.348,22.43-26.695,33.643-40.043c5.493-6.538,10.986-13.075,16.479-19.613c4.982-5.93,10.4-11.742,14.897-18.09
	c5.53-0.062,11.06-0.12,16.589-0.182c7.902-0.088,16.01,0.247,23.999-0.092C470.776,197.675,470.758,203.735,470.729,209.793z
	 M299.342,448.755c47.923-60.71,95.019-122.125,140.7-184.55c6.523-8.915,13.048-17.829,19.571-26.743
	c3.487-4.767,7.376-9.538,11.023-14.445c-0.246,27.18-0.859,54.319-2.103,81.439c-10.322,14.468-19.341,29.969-29.042,44.837
	c-10.834,16.606-21.782,33.147-32.854,49.596c-11.064,16.438-22.279,32.784-33.625,49.029
	c-10.301,14.75-21.524,29.231-30.879,44.649c-14.713,0.797-29.436,1.447-44.166,1.93
	C298.658,479.277,299.084,464.021,299.342,448.755z M462.58,386.559c-1.676,16.349-3.577,32.68-5.855,48.956
	c-1.761,12.567-2.465,27.252-9.212,38.37c-7.396,12.188-22.669,12.545-35.359,13.678c-16.659,1.487-33.339,2.767-50.031,3.835
	c-4.552,0.292-9.106,0.56-13.661,0.82c10.764-12.218,20.294-25.787,29.899-38.809c11.987-16.251,23.71-32.68,35.173-49.304
	c11.264-16.333,22.253-32.83,32.947-49.539c7.064-11.037,14.457-22.06,21.199-33.403
	C466.465,342.968,464.814,364.763,462.58,386.559z M497.91,126.467c-1.006,5.902-2.033,11.8-3.049,17.7
	c-0.945,5.483-1.793,10.981-2.71,16.47c-0.73,4.369-1.354,9.662-4.237,13.224c-5.443,6.729-18.621,4.738-26.108,4.807
	c-46.516,0.428-93.033,0.75-139.546,1.329c-9.702,0.121-19.404,0.234-29.105,0.353c-1.117-20.92-2.428-41.818-4.13-62.703
	c58.708-0.866,117.419-1.718,176.101-3.251c3.822-0.1,7.638-0.285,11.449-0.499c2.021,0.057,4.044,0.106,6.065,0.167
	c3.581,0.106,12.55-1.211,15.193,1.809C499.947,118.287,498.382,123.698,497.91,126.467z"/>
<g>
</g>
<g>
</g>
<g>
</g>
<g>
</g>
<g>
</g>
<g>
</g>
<g>
</g>
<g>
</g>
<g>
</g>
<g>
</g>
<g>
</g>
<g>
</g>
<g>
</g>
<g>
</g>
<g>
</g>
</svg>
